PathFileType	4	(X/Y/Z)	pose_F01_0-95.trc
DataRate	CameraRate	NumFrames	NumMarkers	Units	OrigDataRate	OrigDataStartFrame	OrigNumFrames
30	30	12	21	m	30	38	95
Frame#	Time	CHip			RHip			RKnee			RAnkle			RBigToe			RSmallToe			RHeel			LHip			LKnee			LAnkle			LBigToe			LSmallToe			LHeel			Neck			Nose			RShoulder			RElbow			RWrist			LShoulder			LElbow			LWrist			
		X1	Y1	Z1	X2	Y2	Z2	X3	Y3	Z3	X4	Y4	Z4	X5	Y5	Z5	X6	Y6	Z6	X7	Y7	Z7	X8	Y8	Z8	X9	Y9	Z9	X10	Y10	Z10	X11	Y11	Z11	X12	Y12	Z12	X13	Y13	Z13	X14	Y14	Z14	X15	Y15	Z15	X16	Y16	Z16	X17	Y17	Z17	X18	Y18	Z18	X19	Y19	Z19	X20	Y20	Z20	X21	Y21	Z21	
38	1.2666666666666666	-0.2555027012559921	1.9109616049907654	-0.6341809187139601	-0.26833827612570904	1.909191680097392	-0.5659440675809092																-1.2619262097148705	1.821995562650797	0.32025096801132374	-0.2500997075227462	1.7664527129956198	-0.6937899360626358													-0.2625505908747248	2.0753854338039384	-0.6568203317631341	-0.2532090757638375	2.147553749586389	-0.6264197777050146	-0.27587675444302284	2.071960988183449	-0.5661300544183338	-0.2682846502190032	2.091323378225151	-0.49905308295834616	-0.24288027141374632	2.1378667500073756	-0.44308153446087056	-0.24394181689651145	2.0789457422800144	-0.7462361620496166	-0.23278936339512463	2.00205099238491	-0.7814519006984327	-1.1493124708288878	1.8307094128898083	0.13532826574971454
39	1.3	-0.25667001007210155	1.9071046919849348	-0.6370143970632598	-0.27062824468593205	1.9064990245469742	-0.5721087882105321																-0.2423152414195718	1.9096507745104911	-0.705130067013008	-0.24816372927301883	1.7623234328311144	-0.6954129176966023													-0.2644212441755443	2.075540550230726	-0.6628637558691748	-0.25410583577644213	2.1432654799511512	-0.6366669865022515	-0.27882068809511423	2.072317397000763	-0.5752866225636831	-0.27130403753378374	2.090342780244845	-0.5002344322015413	-0.242124512497126	2.1358142800157025	-0.4477319986226291	-0.24479836940908667	2.0788911999314656	-0.7492448358570378	-0.23369454419047622	2.00105945867874	-0.7845296010738896	-1.1378762067738724	1.8280564514878257	0.11351073760719131
40	1.3333333333333333	-0.25842418224741487	1.9100918175707176	-0.6436824859247543	-0.2714207180441029	1.90750744529947	-0.5756502935244262																-0.2431651558881045	1.9125556537620947	-0.7085559591564531	-0.24898471311477333	1.7629017055086067	-0.6986930511633147													-0.26441269273572904	2.0742357348088425	-0.6626386538472167	-0.25599929634974333	2.141013042410385	-0.6422835162903558	-0.2788600957677515	2.071168639743128	-0.5754831488629195	-0.2714391708000988	2.088838823415646	-0.5003371198693038	-0.2441101371798549	2.1337072462117663	-0.4460363996829708	-0.24561106998149793	2.0791283581256965	-0.7522314691949445	-0.23529537715127002	2.00275913619585	-0.7903563111137649	-1.131655443980176	1.8292877815112112	0.0979719876052678
41	1.3666666666666667	-0.2574153511732131	1.9087365017122075	-0.6489160836445583	-0.27054029668732377	1.906127094531306	-0.5808097027892694																-0.24198904444977412	1.9100039550676147	-0.7134487288144217	-0.24899127386740474	1.7633975608964694	-0.6987242488316777													-0.2654607238249734	2.0715833552074483	-0.6653939666422674	-0.2570849491201129	2.1398324576609373	-0.6454705476499848	-0.27797832389707017	2.0687960595842783	-0.5803663138170589	-0.27383114198914704	2.08285172121679	-0.5057616315329294	-0.24835503072125922	2.1318715831256583	-0.4568131562655464	-0.24743016846279012	2.0767493916232556	-0.7578128596143908	-0.2362785233161899	1.9990980174638866	-0.7932744879012296	-1.1225598777570531	1.8281620452956597	0.0830485950632932
42	1.4	-0.26056118352695756	1.9092298558633176	-0.6498781247487394	-0.27368974978490807	1.9082423763928618	-0.5820562457474718																-1.2583159475576682	1.8210450302125962	0.3000624523930661	-0.24640785409746274	1.762348154795582	-0.7012288041916077													-0.2674086255059112	2.069739824632189	-0.6709684579252879	-0.2601322921425562	2.1373405150030584	-0.6461020811863568	-0.2830031214681397	2.0653768863748057	-0.5864393425960227	-0.27751340841214717	2.084159751661558	-0.50899677516068	-0.24939981859106164	2.1305167038935067	-0.45927223662504824	-0.24846506629763954	2.074352882366273	-0.7605832442607047	-0.23631468143342357	1.9963125584271	-0.79269518673613	-1.1188742281037183	1.8229395823126147	0.07882969395886136
43	1.4333333333333333	-0.26359724544126983	1.90064612084023	-0.6498680649662696	-0.2747152890106942	1.8999956489236847	-0.5840892596486793																-0.24695524205723735	1.9048081759587985	-0.7197416214297141	-0.24640785409746274	1.762348154795582	-0.7012288041916077													-0.2685889917760173	2.0637811414732536	-0.673542863130598	-0.25916299582773533	2.1312956739480984	-0.6500611956064082	-0.2861419797902474	2.061696755277746	-0.5872289476319034	-0.2746883245398443	2.0786756576748324	-0.49876168239905516	-0.24952785219897033	2.125532783434008	-0.45843485378271276	-0.2503510157387039	2.069532995010573	-0.7658996473795783	-0.23706917069094532	1.9912968516607739	-0.794912838168433	-1.1119567370704317	1.8185244031294818	0.06630540816017454
44	1.4666666666666666	-0.26464746904506975	1.895494644606812	-0.6524295378318697	-0.2765779161970522	1.895934586266449	-0.5899316197955163																-0.24793058827691272	1.8985810476153657	-0.722144577388162	-0.24640785409746274	1.762348154795582	-0.7012288041916077													-0.2705520756886578	2.0571834012870727	-0.6784436720795918	-0.2593517918735532	2.1217702334666	-0.6574179862284245	-0.28624546042647	2.0541651225111	-0.5936817394576985	-0.2747921290382033	2.0625626456205537	-0.4933772091092983	-0.24809974092828344	2.1158579560849278	-0.47458295889699165	-0.2514687057059007	2.0617013461079408	-0.7681700455587718	-0.23902110314681144	1.9858628861580234	-0.800420990567137	-1.0993191480746887	1.8146407092225971	0.044432619888767864
45	1.5	-0.26657547191780856	1.8829515099520677	-0.6570959033950434	-0.2787808551810184	1.8821006330694998	-0.5945135070293337																-0.25189557086620123	1.8849712429760628	-0.724797288631284	-0.24640785409746274	1.762348154795582	-0.7012288041916077													-0.2726963346420202	2.0444993724754856	-0.6823904257569307	-0.2622737796604752	2.1099602876293164	-0.6639460157286762	-0.28963061979683	2.0405484569246415	-0.5924460688166191	-0.27495658676811674	2.032171994808868	-0.5096463051891551	-0.24615576578795395	2.0963373493235524	-0.5193487015029272	-0.2534114134481144	2.05071030353031	-0.7726402734407982	-0.2408939312818964	1.9747922627853693	-0.8051482799063877	-1.0947753192808165	1.8017145076064307	0.04181165762460317
46	1.5333333333333334	-0.2693959067550269	1.8829701411090782	-0.6662931288160286	-0.28061422350597337	1.8793451600789082	-0.600511080960509																-0.25343524231372944	1.8852982216620697	-0.725441479532612	-0.24640785409746274	1.762348154795582	-0.7012288041916077													-0.27601580554528127	2.040396824267104	-0.6830236629656868	-0.26446985755498376	2.1107091911020044	-0.661698958788567	-0.2948638323938165	2.0380692075754228	-0.5908118088952108	-0.2941486438458183	1.9802748999263795	-0.5072055335236365	-0.2550115005038738	2.0782778248093643	-0.5526879019854464	-0.2536732575987073	2.0454883940896265	-0.7721857376244168	-0.24263310981870956	1.967579936747675	-0.7996576748567721	-1.0940260533197914	1.798349897787175	0.03086904074241088
47	1.5666666666666667	-0.2715767505590897	1.8850375931305572	-0.6645777780648547	-0.2847357321131158	1.8838303608836662	-0.5971339600202801																-0.25497491376125764	1.8856252003480767	-0.7260856704339399	-0.24640785409746274	1.762348154795582	-0.7012288041916077													-0.27606390633584144	2.041481413382905	-0.683461284486604	-0.26454725787690236	2.1095334927477243	-0.6619413526821699	-0.2958818031209843	2.0377858970202167	-0.59389820950341	-0.28113520837059236	1.9852084689371936	-0.544529699938254	-0.2638672352197936	2.060218300295176	-0.5860271024679655	-0.25367232706286	2.04694602253571	-0.772537824217309	-0.24468220016445047	1.9685785970374148	-0.7970332360623222	-1.0925022414683818	1.7932476453468815	0.02687507091071235
48	1.6	-0.27298084003713724	1.8907903853769155	-0.6599565559829261	-0.2871864968505198	1.8882510668978223	-0.5954628480058576																-0.2573802315285358	1.8901630130162694	-0.724328301520356	-0.24640785409746274	1.762348154795582	-0.7012288041916077													-0.27605628609200433	2.0482040378158195	-0.6844792533399978	-0.2654312915198818	2.111942533503612	-0.6650658898735236	-0.29681590702625893	2.047267865958208	-0.5989986844624904	-0.27900196669996	1.980415236070423	-0.562984575781062	-0.26108867696885374	2.0559951422973937	-0.6114762623032713	-0.255813314984611	2.051587038885324	-0.7709666138629095	-0.24715193992292717	1.972677429498795	-0.7955103045173177	-1.112478387405756	1.7972087171855653	0.04548161868410845
49	1.6333333333333333	-0.27465937607765484	1.8951140899857801	-0.6579494987139347	-0.286541813131649	1.8934959497542874	-0.595752044131686																-0.26355123663520424	1.8951694309552232	-0.7179149389993821	-0.24640785409746274	1.762348154795582	-0.7012288041916077													-0.2781232575325075	2.0506547948611216	-0.682652467256763	-0.2696257728506197	2.1119042952794556	-0.6608445311451688	-0.29676289650809856	2.0497180714428382	-0.5994586272700541	-0.282965623345052	1.9848391324694485	-0.5589978221864891	-0.2654690222416267	2.0476691165424348	-0.604868451310286	-0.2601293460567442	2.0527697337384483	-0.7665184321788019	-0.25152725721142066	1.974404821628833	-0.7909152412107611	-1.1236177135271799	1.7988480252727974	0.05970190804212788
